# xmcd
# 
# Track frame offsets:
#     150
#     18840
#     39850
#     60266
#     84297
#     99488
#     127350
#     148179
#     160363
#     171737
# 
# Disc length: 3264
# 
# Revision: 0
# Processed by: cddbd v1.5.2PL0 Copyright (c) Steve Scherf et al.
# Submitted via: fre:ac v1.0.31
# 
DISCID=820cbe0a
DTITLE=North Mississippi Allstars - Shake Hands With Shorty
DYEAR=2000
DGENRE=Rock/Pop
TTITLE0=Shake'Em on Down
TTITLE1=Drop Down Mama
TTITLE2=Po Black Maddie
TTITLE3=Skinny Woman
TTITLE4=Drinking Muddy Water
TTITLE5=Goin' Down South
TTITLE6=K.C. Jones (On the Road Again)
TTITLE7=Station Blues
TTITLE8=Someday Baby
TTITLE9=All Night Long
EXTD=
EXTT0=
EXTT1=
EXTT2=
EXTT3=
EXTT4=
EXTT5=
EXTT6=
EXTT7=
EXTT8=
EXTT9=
PLAYORDER=
